<svg xmlns="http://www.w3.org/2000/svg" width="24" height="24" viewBox="0 0 24 24">
  <g id="vuesax_bold_card-add" data-name="vuesax/bold/card-add" transform="translate(-172 -508)">
    <g id="card-add">
      <path id="Vector" d="M0,1.21v5a4.135,4.135,0,0,0,4.14,4.14H15.85A4.153,4.153,0,0,0,20,6.2V1.21A1.208,1.208,0,0,0,18.79,0H1.21A1.208,1.208,0,0,0,0,1.21ZM6,7H4A.75.75,0,0,1,4,5.5H6A.75.75,0,0,1,6,7Zm6.5,0h-4a.75.75,0,0,1,0-1.5h4a.75.75,0,0,1,0,1.5Z" transform="translate(174 518.25)" fill="#fff"/>
      <path id="Vector-2" data-name="Vector" d="M11.5,1.21V4.14a1.208,1.208,0,0,1-1.21,1.21H1.21A1.218,1.218,0,0,1,0,4.12,4.131,4.131,0,0,1,4.14,0h6.15A1.208,1.208,0,0,1,11.5,1.21Z" transform="translate(174 511.4)" fill="#fff"/>
      <path id="Vector-3" data-name="Vector" d="M4.97,0H2.03A1.866,1.866,0,0,0,0,2.03V4.97A1.866,1.866,0,0,0,2.03,7H4.97A1.866,1.866,0,0,0,7,4.97V2.03A1.866,1.866,0,0,0,4.97,0Zm.94,3.93a.647.647,0,0,1-.41.18H4.09L4.1,5.5a.632.632,0,0,1-.19.43.59.59,0,0,1-.41.17.6.6,0,0,1-.6-.6V4.1l-1.4.01A.61.61,0,0,1,.9,3.5a.6.6,0,0,1,.6-.6l1.4.01V1.51a.6.6,0,1,1,1.2,0L4.09,2.9H5.5a.6.6,0,0,1,.6.6A.681.681,0,0,1,5.91,3.93Z" transform="translate(187 510)" fill="#fff"/>
      <path id="Vector-4" data-name="Vector" d="M0,0H24V24H0Z" transform="translate(172 508)" fill="none" opacity="0"/>
    </g>
  </g>
</svg>
