<svg xmlns="http://www.w3.org/2000/svg" width="24" height="24" viewBox="0 0 24 24">
  <g id="vuesax_bold_heart" data-name="vuesax/bold/heart" transform="translate(-236 -188)">
    <g id="heart">
      <g id="Vector" transform="translate(238 191.1)" fill="none">
        <path d="M14.44,0A5.549,5.549,0,0,0,10,2.23,5.552,5.552,0,0,0,0,5.59,10.678,10.678,0,0,0,.52,8.9c1.58,5,6.45,7.99,8.86,8.81a2.181,2.181,0,0,0,1.24,0c2.41-.82,7.28-3.81,8.86-8.81A10.678,10.678,0,0,0,20,5.59,5.574,5.574,0,0,0,14.44,0Z" stroke="none"/>
        <path d="M 5.560000419616699 1 C 3.045610427856445 1 1 3.059069633483887 1 5.590000152587891 C 1 6.615180015563965 1.158620834350586 7.625260353088379 1.471439361572266 8.592180252075195 L 1.473529815673828 8.598690032958984 C 2.274869918823242 11.13459968566895 3.991540908813477 12.99769973754883 5.290539741516113 14.11409950256348 C 6.921070098876953 15.51543045043945 8.638520240783691 16.40140914916992 9.702110290527344 16.7632999420166 L 9.712820053100586 16.76700973510742 C 9.73882007598877 16.77618980407715 9.841090202331543 16.79999923706055 10 16.79999923706055 C 10.15890979766846 16.79999923706055 10.26117992401123 16.77618980407715 10.28717994689941 16.76700973510742 L 10.29788970947266 16.7632999420166 C 11.36147975921631 16.40140914916992 13.07892990112305 15.51543045043945 14.70945930480957 14.11409950256348 C 16.00846099853516 12.99769973754883 17.72513008117676 11.13459968566895 18.52647018432617 8.598690032958984 L 18.52856063842773 8.592180252075195 C 18.84137916564941 7.625260353088379 19 6.615180015563965 19 5.590000152587891 C 19 3.059069633483887 16.95438957214355 1 14.44000053405762 1 C 13.01803970336914 1 11.65756034851074 1.683759689331055 10.80070972442627 2.829050064086914 L 10 3.899310111999512 L 9.19929027557373 2.829050064086914 C 8.342439651489258 1.683759689331055 6.981960296630859 1 5.560000419616699 1 M 5.560000419616699 0 C 7.369999885559082 0 8.989999771118164 0.8799991607666016 10 2.229999542236328 C 11.01000022888184 0.8799991607666016 12.63000011444092 0 14.44000053405762 0 C 17.51000022888184 0 20 2.5 20 5.590000152587891 C 20 6.779999732971191 19.80999946594238 7.880000114440918 19.47999954223633 8.899999618530273 C 17.89999961853027 13.89999961853027 13.03000068664551 16.88999938964844 10.61999988555908 17.70999908447266 C 10.27999973297119 17.82999992370605 9.720000267028809 17.82999992370605 9.380000114440918 17.70999908447266 C 6.970000267028809 16.88999938964844 2.100000381469727 13.89999961853027 0.5200004577636719 8.899999618530273 C 0.1900005340576172 7.880000114440918 0 6.779999732971191 0 5.590000152587891 C 0 2.5 2.489999771118164 0 5.560000419616699 0 Z" stroke="none" fill="#e10064"/>
      </g>
      <g id="Vector-2" data-name="Vector" transform="translate(260 212) rotate(180)" fill="none" opacity="0">
        <path d="M0,0H24V24H0Z" stroke="none"/>
        <path d="M 1 1 L 1 23 L 23 23 L 23 1 L 1 1 M 0 0 L 24 0 L 24 24 L 0 24 L 0 0 Z" stroke="none" fill="#e10064"/>
      </g>
    </g>
  </g>
</svg>
