<svg id="calendar" xmlns="http://www.w3.org/2000/svg" width="15.23" height="15.23" viewBox="0 0 15.23 15.23">
  <path id="Vector" d="M.476,2.856A.479.479,0,0,1,0,2.38V.476A.479.479,0,0,1,.476,0,.479.479,0,0,1,.952.476v1.9A.479.479,0,0,1,.476,2.856Z" transform="translate(4.759 0.793)" fill="#15163f"/>
  <path id="Vector-2" data-name="Vector" d="M.476,2.856A.479.479,0,0,1,0,2.38V.476A.479.479,0,0,1,.476,0,.479.479,0,0,1,.952.476v1.9A.479.479,0,0,1,.476,2.856Z" transform="translate(9.519 0.793)" fill="#15163f"/>
  <path id="Vector-3" data-name="Vector" d="M.571,1.009A.515.515,0,0,0,1.142.5.507.507,0,0,0,.571,0,.507.507,0,0,0,0,.5.515.515,0,0,0,.571,1.009Z" transform="translate(7.044 7.932)" fill="#15163f"/>
  <path id="Vector-4" data-name="Vector" d="M1.447.59a.667.667,0,0,1-.723.59A.667.667,0,0,1,0,.59.667.667,0,0,1,.723,0,.667.667,0,0,1,1.447.59Z" transform="translate(6.892 9.608)" fill="#15163f"/>
  <path id="Vector-5" data-name="Vector" d="M10.832.635a.641.641,0,0,0-1.022.514v.063a1.487,1.487,0,0,1-1.276,1.5,1.43,1.43,0,0,1-1.58-1.421V.635A.636.636,0,0,0,6.321,0H5.737A.636.636,0,0,0,5.1.635v.66a1.408,1.408,0,0,1-.654,1.193,1.709,1.709,0,0,1-.184.1.852.852,0,0,1-.19.076,1.007,1.007,0,0,1-.247.051,1.223,1.223,0,0,1-.3,0,1.007,1.007,0,0,1-.247-.051,1.191,1.191,0,0,1-.19-.076,1.709,1.709,0,0,1-.184-.1,1.566,1.566,0,0,1-.654-1.276V1.149A.644.644,0,0,0,1.314.577C1.307.584,1.3.584,1.295.59a.427.427,0,0,0-.07.044c-.019.019-.044.032-.063.051a2.74,2.74,0,0,0-.47.47A1.57,1.57,0,0,0,.514,1.4a.088.088,0,0,0-.019.025,2.22,2.22,0,0,0-.152.267C.33,1.7.324,1.707.324,1.72a1.542,1.542,0,0,0-.1.235.535.535,0,0,0-.038.089A2.462,2.462,0,0,0,.1,2.329a1.978,1.978,0,0,0-.057.279c-.013.07-.019.14-.025.216S0,3,0,3.09V8.649a3.09,3.09,0,0,0,3.09,3.09H8.967a3.09,3.09,0,0,0,3.09-3.09V3.09A3.071,3.071,0,0,0,10.832.635ZM6.029,9.36c-.984,0-1.586-.489-1.586-1.276a1.165,1.165,0,0,1,.609-1.028,1.043,1.043,0,0,1-.463-.888,1.281,1.281,0,0,1,1.441-1.25,1.276,1.276,0,0,1,1.434,1.25A1.028,1.028,0,0,1,7,7.057a1.158,1.158,0,0,1,.616,1.028C7.615,8.872,7.006,9.36,6.029,9.36Z" transform="translate(1.586 2.221)" fill="#15163f"/>
  <path id="Vector-6" data-name="Vector" d="M15.23,15.23H0V0H15.23Z" fill="none" opacity="0"/>
</svg>
