<svg xmlns="http://www.w3.org/2000/svg" width="14.006" height="14.006" viewBox="0 0 14.006 14.006">
  <g id="vuesax_bold_edit-2" data-name="vuesax/bold/edit-2" transform="translate(-684 -252)">
    <g id="edit-2" transform="translate(684 252)">
      <path id="Vector" d="M10.942.875H.438A.441.441,0,0,1,0,.438.441.441,0,0,1,.438,0h10.5a.441.441,0,0,1,.438.438A.441.441,0,0,1,10.942.875Z" transform="translate(1.313 11.963)" fill="#ef83b3"/>
      <path id="Vector-2" data-name="Vector" d="M4.176.86a2.112,2.112,0,0,0-3.4,0l-.706.706A.243.243,0,0,0,.009,1.8,4.744,4.744,0,0,0,3.236,5.027a.293.293,0,0,0,.07.012.234.234,0,0,0,.169-.07l.7-.706a2.412,2.412,0,0,0,.858-1.687A2.4,2.4,0,0,0,4.176.86Z" transform="translate(6.924 1.171)" fill="#ef83b3"/>
      <path id="Vector-3" data-name="Vector" d="M7.071,3.2c-.169-.082-.333-.163-.49-.257-.128-.076-.251-.158-.373-.245a3.524,3.524,0,0,1-.327-.251.712.712,0,0,1-.1-.088,4.935,4.935,0,0,1-.6-.607.711.711,0,0,1-.088-.105,3.394,3.394,0,0,1-.245-.321A3.2,3.2,0,0,1,4.62.98C4.526.823,4.445.665,4.363.5s-.146-.344-.2-.5L.494,3.665a.7.7,0,0,0-.163.321L.015,6.221a1.2,1.2,0,0,0,.3,1.021,1.162,1.162,0,0,0,.817.315,1.276,1.276,0,0,0,.21-.018l2.241-.315A.65.65,0,0,0,3.9,7.061L7.567,3.4C7.4,3.338,7.246,3.274,7.071,3.2Z" transform="translate(2.039 3.531)" fill="#ef83b3"/>
      <path id="Vector-4" data-name="Vector" d="M0,0H14.006V14.006H0Z" transform="translate(14.006 14.006) rotate(180)" fill="none" opacity="0"/>
    </g>
  </g>
</svg>
