<svg id="vuesax_bold_note" data-name="vuesax/bold/note" xmlns="http://www.w3.org/2000/svg" width="24" height="24" viewBox="0 0 24 24">
  <g id="note">
    <path id="Vector" d="M.75,4.29a.749.749,0,0,0,.75-.75V.75A.75.75,0,0,0,0,.75V3.53A.751.751,0,0,0,.75,4.29Z" transform="translate(14.96 2)"/>
    <path id="Vector-2" data-name="Vector" d="M.75,4.29a.749.749,0,0,0,.75-.75V.75A.75.75,0,1,0,0,.75V3.53A.751.751,0,0,0,.75,4.29Z" transform="translate(7.54 2)"/>
    <path id="Vector-3" data-name="Vector" d="M1.93,1a1.01,1.01,0,0,1,1.61.81v.1A2.343,2.343,0,0,0,5.55,4.28,2.253,2.253,0,0,0,8.04,2.04V1a1,1,0,0,1,1-1h.92a1,1,0,0,1,1,1V2.04a2.219,2.219,0,0,0,1.03,1.88,2.694,2.694,0,0,0,.29.16,1.343,1.343,0,0,0,.3.12,1.587,1.587,0,0,0,.39.08,1.927,1.927,0,0,0,.48,0,1.587,1.587,0,0,0,.39-.08,1.877,1.877,0,0,0,.3-.12,2.694,2.694,0,0,0,.29-.16,2.467,2.467,0,0,0,1.03-2.01v-.1a1.015,1.015,0,0,1,1.47-.9c.01.01.02.01.03.02a.673.673,0,0,1,.11.07c.03.03.07.05.1.08a4.318,4.318,0,0,1,.74.74,2.474,2.474,0,0,1,.28.38.138.138,0,0,1,.03.04,3.5,3.5,0,0,1,.24.42c.02.02.03.03.03.05a2.43,2.43,0,0,1,.16.37.843.843,0,0,1,.06.14,3.88,3.88,0,0,1,.14.45,3.117,3.117,0,0,1,.09.44c.02.11.03.22.04.34.01.14.02.28.02.42v8.76a4.87,4.87,0,0,1-4.87,4.87H4.87A4.87,4.87,0,0,1,0,13.63V4.87A4.839,4.839,0,0,1,1.93,1ZM9.5,13.92h4.64a.755.755,0,0,0,0-1.51H9.5a.755.755,0,0,0,0,1.51ZM6.72,10.21h7.42a.755.755,0,0,0,0-1.51H6.72a.755.755,0,1,0,0,1.51Z" transform="translate(2.5 3.5)"/>
    <path id="Vector-4" data-name="Vector" d="M0,24H24V0H0Z" transform="translate(0 0)" fill="none" opacity="0"/>
  </g>
</svg>
