<svg id="star" xmlns="http://www.w3.org/2000/svg" width="17" height="17" viewBox="0 0 17 17">
  <path id="Vector" d="M8.3,1.013,9.542,3.5a1.537,1.537,0,0,0,1,.743l2.257.375c1.443.24,1.783,1.287.743,2.32L11.791,8.695a1.536,1.536,0,0,0-.368,1.28l.5,2.171c.4,1.719-.516,2.384-2.037,1.485L7.773,12.38a1.529,1.529,0,0,0-1.4,0L4.258,13.632c-1.514.9-2.433.226-2.037-1.485l.5-2.171a1.536,1.536,0,0,0-.368-1.28L.6,6.941c-1.033-1.033-.7-2.08.743-2.32L3.6,4.246a1.541,1.541,0,0,0,1-.743l1.245-2.49C6.521-.338,7.625-.338,8.3,1.013Z" transform="translate(1.427 1.482)" fill="#f9b100"/>
  <path id="Vector-2" data-name="Vector" d="M0,0H17V17H0Z" fill="#f9b100" opacity="0"/>
</svg>
