<svg id="vuesax_bold_stickynote" data-name="vuesax/bold/stickynote" xmlns="http://www.w3.org/2000/svg" width="24" height="24" viewBox="0 0 24 24">
  <g id="stickynote">
    <path id="Vector" d="M.75,4.29a.749.749,0,0,0,.75-.75V.75A.75.75,0,0,0,0,.75V3.53A.751.751,0,0,0,.75,4.29Z" transform="translate(14.96 2)"/>
    <path id="Vector-2" data-name="Vector" d="M.75,4.29a.749.749,0,0,0,.75-.75V.75A.75.75,0,1,0,0,.75V3.53A.751.751,0,0,0,.75,4.29Z" transform="translate(7.54 2)"/>
    <path id="Vector-3" data-name="Vector" d="M0,.64a.59.59,0,0,0,.18.43L5.69,6.62a.629.629,0,0,0,.47.2.646.646,0,0,0,.65-.64V2.68A2.728,2.728,0,0,0,4.05.01C3.1,0,1.78,0,.65,0A.64.64,0,0,0,0,.64Z" transform="translate(2.5 15.18)"/>
    <path id="Vector-4" data-name="Vector" d="M0,.64a.59.59,0,0,0,.18.43L5.69,6.62a.629.629,0,0,0,.47.2.646.646,0,0,0,.65-.64V2.68A2.728,2.728,0,0,0,4.05.01C3.1,0,1.78,0,.65,0A.64.64,0,0,0,0,.64Z" transform="translate(2.5 15.18)"/>
    <path id="Vector-5" data-name="Vector" d="M1.93,1a1.01,1.01,0,0,1,1.61.81v.1A2.343,2.343,0,0,0,5.55,4.28,2.253,2.253,0,0,0,8.04,2.04V1a1,1,0,0,1,1-1h.92a1,1,0,0,1,1,1v.91a2.4,2.4,0,0,0,1.2,2.1.746.746,0,0,0,.12.07c.01,0,.01.01.02.01.07.03.14.06.22.09.02.01.04.01.06.02a1.587,1.587,0,0,0,.39.08h.01a1.771,1.771,0,0,0,.46,0h.01a1.587,1.587,0,0,0,.39-.08,1.877,1.877,0,0,0,.3-.12,2.231,2.231,0,0,0,1.32-2.04V1.81a1.015,1.015,0,0,1,1.47-.9c.01.01.02.01.03.02h.01c.07.05.13.1.2.15.11.09.22.18.32.28.07.07.14.14.2.21a2.622,2.622,0,0,1,.22.25,1.393,1.393,0,0,1,.15.19,2.141,2.141,0,0,1,.13.19.138.138,0,0,1,.03.04,3.5,3.5,0,0,1,.24.42c.02.02.03.03.03.05a2.43,2.43,0,0,1,.16.37.843.843,0,0,1,.06.14c.02.04.03.09.05.13.03.1.06.21.09.32a3.117,3.117,0,0,1,.09.44c.02.11.03.22.04.34.01.14.02.28.02.42v8.76a4.87,4.87,0,0,1-4.87,4.87H9.31a1,1,0,0,1-1-1V14.36a4.219,4.219,0,0,0-4.26-4.17c-.53-.01-1.82-.01-3.05-.01a1,1,0,0,1-1-1V4.87A4.839,4.839,0,0,1,1.93,1Zm8.44,11.41a.723.723,0,0,0,.7.51h3.64a.274.274,0,0,0,.13-.02.725.725,0,0,0,.62-.73.751.751,0,0,0-.75-.76H11.07a.758.758,0,0,0-.75.76A.494.494,0,0,0,10.37,12.41ZM7.59,8.7a.723.723,0,0,0,.7.51h6.42a.274.274,0,0,0,.13-.02.725.725,0,0,0,.62-.73.751.751,0,0,0-.75-.76H8.29a.751.751,0,0,0-.75.76A.494.494,0,0,0,7.59,8.7Z" transform="translate(2.5 3.5)"/>
    <path id="Vector-6" data-name="Vector" d="M0,24H24V0H0Z" transform="translate(0 0)" fill="none" opacity="0"/>
  </g>
</svg>
